# xmcd
#
# Track frame offsets:
#	150
#	18825
#	37725
#	54600
#	71250
#	90375
#	109650
#	128100
#	146625
#	161325
#	182925
#	198375
#	214725
#	229200
#	246975
#	263025
#
# Disc length: 3774 seconds
#
# Revision: 2
# Processed by: cddbd v1.5.2PL0 Copyright (c) Steve Scherf et al.
# Submitted via: audiograbber 1.83.01
#
DISCID=d70ebc10
DTITLE=Party Tyme Karaoke - Country Hits 10
DYEAR=2012
DGENRE=Karaoke
TTITLE0=Toby Keith - Red Solo Cup
TTITLE1=Blake Shelton - God Gave Me You
TTITLE2=Carrie Underwood - Good Girl
TTITLE3=Rodney Atkins - Take A Back Road
TTITLE4=Luke Bryan - Country Girl (Shake It For Me)
TTITLE5=Taylor Swift - Ours
TTITLE6=Jason Aldean - Dirt Road Anthem
TTITLE7=The Band Perry - All Your Life
TTITLE8=Jake Owen - Barefoot Blue Jean Night
TTITLE9=Brad Paisley Feat. Alabama - Old Alabama
TTITLE10=Lauren Alaina - Georgia Peaches
TTITLE11=Eric Church - Drink In My Hand
TTITLE12=Kellie Pickler - Tough
TTITLE13=Brantley Gilbert - Country Must Be Country Wide
TTITLE14=Miranda Lambert - Baggage Claim
TTITLE15=Kenny Chesney Feat. Grace Potter - You and Tequila
EXTD=
EXTT0=
EXTT1=
EXTT2=
EXTT3=
EXTT4=
EXTT5=
EXTT6=
EXTT7=
EXTT8=
EXTT9=
EXTT10=
EXTT11=
EXTT12=
EXTT13=
EXTT14=
EXTT15=
PLAYORDER=
